<?xml version="1.0" encoding="utf-8"?>
<!-- Generator: Adobe Illustrator 25.2.0, SVG Export Plug-In . SVG Version: 6.00 Build 0)  -->
<svg version="1.1" id="Logo" xmlns="http://www.w3.org/2000/svg" xmlns:xlink="http://www.w3.org/1999/xlink" x="0px" y="0px"
	 width="221.103px" height="41.703px" viewBox="0 0 221.103 41.703" style="enable-background:new 0 0 221.103 41.703;"
	 xml:space="preserve">
<style type="text/css">
	.st0{fill:#424547;}
	.st1{fill:#F47C42;}
	.st2{fill:#06A480;}
</style>
<path class="st0" d="M73.102,12.731c-0.236-0.179-0.509-0.268-0.818-0.268h-3.539c-0.309,0-0.581,0.089-0.817,0.268
	c-0.236,0.18-0.395,0.415-0.476,0.708l-4.905,15.863h3.831l1.235-4.441h5.803l1.236,4.441h3.807l-4.881-15.863
	C73.496,13.146,73.337,12.911,73.102,12.731 M68.394,22.054l1.425-5.125c0.081-0.276,0.15-0.557,0.208-0.842
	c0.057-0.284,0.11-0.557,0.158-0.817h0.659c0.049,0.26,0.106,0.533,0.171,0.817c0.065,0.285,0.13,0.566,0.195,0.842l1.426,5.125
	H68.394z M90.344,12.707c-0.896-0.325-2.132-0.488-3.71-0.488c-1.009,0-1.867,0.005-2.575,0.013
	c-0.708,0.008-1.363,0.028-1.964,0.061c-0.602,0.032-1.245,0.089-1.929,0.171v16.839h3.735V23.02c0.33,0.04,0.671,0.076,1.025,0.108
	c0.716,0.066,1.448,0.098,2.196,0.098c1.416,0,2.538-0.159,3.368-0.476c0.83-0.317,1.427-0.874,1.794-1.672
	c0.366-0.797,0.549-1.911,0.549-3.343s-0.192-2.546-0.574-3.344C91.876,13.594,91.238,13.033,90.344,12.707 M88.867,19.37
	c-0.155,0.39-0.415,0.659-0.781,0.805c-0.366,0.147-0.875,0.228-1.525,0.244h-2.66v-5.382c0.798-0.007,1.679-0.011,2.66-0.011
	c0.65,0,1.159,0.077,1.525,0.232c0.366,0.154,0.626,0.427,0.781,0.817c0.154,0.391,0.232,0.944,0.232,1.66
	C89.099,18.435,89.021,18.979,88.867,19.37 M103.352,19.809c1.35,0.456,2.285,1.074,2.806,1.855
	c0.521,0.781,0.781,1.806,0.781,3.075c0,0.96-0.114,1.757-0.342,2.391c-0.227,0.635-0.585,1.132-1.073,1.489
	c-0.488,0.358-1.131,0.614-1.928,0.769c-0.798,0.154-1.774,0.232-2.929,0.232c-0.553,0-1.342-0.037-2.367-0.11
	s-2.197-0.256-3.514-0.549l0.244-2.636c0.96,0.017,1.794,0.036,2.501,0.061c0.708,0.025,1.314,0.041,1.818,0.049
	c0.505,0.008,0.944,0.012,1.318,0.012c0.651,0,1.159-0.041,1.525-0.122c0.367-0.081,0.623-0.244,0.769-0.488
	c0.147-0.244,0.22-0.594,0.22-1.049c0-0.391-0.053-0.704-0.159-0.94c-0.106-0.236-0.276-0.423-0.512-0.561
	c-0.236-0.139-0.558-0.265-0.964-0.379l-3.417-1.171c-1.285-0.472-2.196-1.09-2.733-1.855c-0.537-0.764-0.805-1.773-0.805-3.026
	c0-0.976,0.117-1.769,0.354-2.379c0.235-0.611,0.601-1.086,1.098-1.428c0.496-0.342,1.138-0.577,1.928-0.708
	c0.788-0.13,1.736-0.195,2.843-0.195c0.829,0,1.732,0.045,2.708,0.134c0.977,0.09,1.929,0.273,2.856,0.549l-0.244,2.465
	c-0.716-0.016-1.554-0.032-2.514-0.049c-0.96-0.016-1.903-0.024-2.831-0.024c-0.455,0-0.842,0.012-1.159,0.036
	c-0.317,0.025-0.573,0.09-0.769,0.196c-0.195,0.106-0.333,0.264-0.415,0.476c-0.081,0.211-0.122,0.504-0.122,0.878
	c0,0.57,0.135,0.985,0.403,1.245c0.268,0.26,0.728,0.496,1.379,0.708L103.352,19.809 M125.999,12.464h2.367v15.887
	c0,0.635-0.301,0.952-0.903,0.952h-2.099c-0.276,0-0.492-0.065-0.646-0.195c-0.155-0.13-0.289-0.318-0.403-0.561l-5.516-11.373
	c-0.146-0.326-0.317-0.696-0.512-1.111c-0.196-0.414-0.342-0.801-0.439-1.159h-0.366c0.032,0.375,0.056,0.753,0.073,1.135
	c0.016,0.382,0.024,0.769,0.024,1.159v12.105h-2.391V13.415c0-0.634,0.309-0.951,0.927-0.951h2.026c0.276,0,0.496,0.065,0.658,0.195
	c0.163,0.13,0.301,0.317,0.415,0.561l5.321,11.08c0.179,0.342,0.369,0.732,0.573,1.172c0.203,0.439,0.403,0.87,0.598,1.293h0.391
	c-0.033-0.44-0.058-0.875-0.074-1.306c-0.016-0.431-0.024-0.858-0.024-1.281V12.464z M141.801,23.494
	c0.48-0.585,0.712-1.415,0.696-2.489c0-1.285-0.411-2.258-1.233-2.916c-0.821-0.659-2.151-0.989-3.99-0.989
	c-1.302,0-2.367,0.191-3.196,0.574c-0.831,0.382-1.44,1.029-1.831,1.94c-0.391,0.911-0.586,2.148-0.586,3.709
	c0,1.497,0.195,2.705,0.586,3.624c0.391,0.92,1.009,1.591,1.854,2.014c0.846,0.423,1.969,0.634,3.368,0.634
	c0.489,0,1.026-0.024,1.611-0.073c0.586-0.049,1.155-0.126,1.708-0.232c0.553-0.105,1.026-0.239,1.416-0.402l-0.244-1.538
	c-0.635,0.082-1.338,0.151-2.111,0.207c-0.773,0.058-1.468,0.086-2.087,0.086c-0.879,0-1.582-0.122-2.111-0.366
	c-0.529-0.244-0.911-0.687-1.147-1.33c-0.15-0.408-0.251-0.933-0.306-1.574h5.273C140.544,24.373,141.321,24.08,141.801,23.494
	 M134.161,22.689c0.023-0.864,0.111-1.563,0.27-2.075c0.187-0.601,0.516-1.024,0.989-1.269c0.471-0.244,1.122-0.357,1.952-0.341
	c1.009,0,1.72,0.15,2.135,0.451c0.415,0.301,0.63,0.818,0.647,1.55c0,0.439-0.082,0.83-0.244,1.172
	c-0.163,0.341-0.512,0.512-1.049,0.512H134.161z M148.768,17.393h3.71v1.757h-3.71v6.76c0,0.553,0.118,0.948,0.354,1.184
	c0.235,0.236,0.638,0.354,1.208,0.354h1.757l0.268,1.732c-0.276,0.082-0.589,0.147-0.94,0.196c-0.349,0.048-0.699,0.085-1.049,0.11
	c-0.35,0.024-0.63,0.036-0.842,0.036c-1.009,0-1.781-0.276-2.318-0.83c-0.537-0.553-0.805-1.35-0.805-2.391V19.15h-2.148v-1.635
	l2.148-0.112v-3.5h2.367V17.393z M170.293,17.393h2.416l-3.368,11.25c-0.049,0.196-0.155,0.354-0.318,0.476
	c-0.163,0.123-0.35,0.184-0.561,0.184h-2.05c-0.211,0-0.403-0.069-0.573-0.208c-0.171-0.138-0.273-0.313-0.305-0.525l-1.831-7.858
	c-0.065-0.309-0.126-0.618-0.183-0.927c-0.057-0.309-0.126-0.635-0.207-0.977h-0.293c-0.049,0.342-0.11,0.668-0.183,0.977
	c-0.073,0.309-0.143,0.618-0.207,0.927l-1.807,7.858c-0.048,0.212-0.154,0.387-0.317,0.525c-0.163,0.139-0.366,0.208-0.61,0.208
	h-2.001c-0.212,0-0.399-0.061-0.562-0.184c-0.162-0.122-0.268-0.28-0.316-0.476l-3.393-11.25h2.441l2.318,8.566
	c0.065,0.31,0.13,0.614,0.195,0.915c0.065,0.302,0.122,0.606,0.171,0.916h0.317c0.065-0.31,0.135-0.614,0.208-0.916
	c0.073-0.301,0.142-0.605,0.207-0.915l1.855-7.834c0.033-0.211,0.126-0.386,0.281-0.525c0.154-0.138,0.354-0.207,0.597-0.207h1.953
	c0.228,0,0.418,0.069,0.573,0.207c0.155,0.139,0.256,0.322,0.305,0.55l1.831,7.809c0.065,0.31,0.13,0.614,0.195,0.915
	c0.065,0.302,0.13,0.606,0.195,0.916h0.317c0.082-0.31,0.147-0.611,0.196-0.903c0.049-0.293,0.114-0.602,0.195-0.928L170.293,17.393
	z M183.556,17.711c-0.837-0.407-1.956-0.61-3.355-0.61c-1.383,0-2.494,0.203-3.331,0.61c-0.839,0.407-1.444,1.07-1.818,1.989
	c-0.375,0.919-0.562,2.135-0.562,3.648c0,1.53,0.187,2.754,0.562,3.673c0.374,0.92,0.979,1.583,1.818,1.989
	c0.837,0.407,1.948,0.61,3.331,0.61c1.399,0,2.518-0.203,3.355-0.61c0.838-0.406,1.44-1.069,1.807-1.989
	c0.366-0.919,0.549-2.143,0.549-3.673c0-1.513-0.183-2.729-0.549-3.648C184.996,18.781,184.394,18.118,183.556,17.711
	 M183.154,25.984c-0.195,0.634-0.533,1.078-1.013,1.33c-0.48,0.253-1.126,0.378-1.94,0.378c-0.814,0-1.456-0.125-1.928-0.378
	c-0.472-0.252-0.805-0.696-1.001-1.33c-0.195-0.635-0.292-1.513-0.292-2.636c0-1.122,0.097-1.997,0.292-2.623
	c0.196-0.626,0.529-1.07,1.001-1.33c0.472-0.261,1.114-0.391,1.928-0.391c0.814,0,1.46,0.13,1.94,0.391
	c0.48,0.26,0.818,0.704,1.013,1.33c0.195,0.626,0.293,1.501,0.293,2.623C183.447,24.471,183.349,25.349,183.154,25.984
	 M193.563,17.698c0.887-0.398,1.745-0.598,2.575-0.598h0.536l-0.243,2.197h-0.757c-0.668,0-1.347,0.13-2.038,0.39
	c-0.633,0.238-1.398,0.576-2.282,1.005v8.611h-2.343v-11.91h1.831l0.238,1.867C191.897,18.599,192.724,18.075,193.563,17.698
	 M204.923,23.067c0.179,0.204,0.326,0.403,0.44,0.598l4.027,5.638h-2.734l-3.963-5.882h-1.535c0.022,0.178,0.043,0.356,0.056,0.537
	c0.033,0.472,0.049,0.919,0.049,1.342v4.003h-2.343V12.219h2.343l0.024,7.492c0,0.521-0.021,1.005-0.061,1.452
	c-0.018,0.195-0.043,0.396-0.072,0.598h1.516l3.596-4.368h2.733l-3.636,4.32c-0.114,0.162-0.261,0.329-0.44,0.5
	c-0.179,0.171-0.325,0.297-0.439,0.378v0.049C204.598,22.721,204.744,22.864,204.923,23.067 M220.419,23.86
	c0.455,0.472,0.684,1.22,0.684,2.245c0,0.976-0.184,1.713-0.549,2.209c-0.367,0.496-0.932,0.83-1.697,1
	c-0.765,0.171-1.732,0.257-2.904,0.257c-0.439,0-1.094-0.016-1.964-0.049c-0.871-0.033-1.827-0.139-2.868-0.317l0.171-1.635
	c0.374,0.016,0.781,0.032,1.22,0.048c0.439,0.017,0.903,0.025,1.391,0.025h1.513c0.879,0,1.566-0.037,2.062-0.11
	c0.497-0.073,0.846-0.22,1.05-0.44c0.203-0.219,0.305-0.549,0.305-0.988c0-0.537-0.167-0.899-0.5-1.086
	c-0.334-0.187-0.785-0.345-1.355-0.476l-3.343-0.781c-0.684-0.162-1.225-0.386-1.623-0.671c-0.399-0.284-0.684-0.642-0.854-1.074
	c-0.171-0.43-0.257-0.972-0.257-1.623c0-0.91,0.163-1.606,0.489-2.086c0.325-0.48,0.833-0.805,1.525-0.976
	c0.691-0.171,1.598-0.248,2.721-0.232c0.52,0,1.082,0.016,1.684,0.049c0.601,0.032,1.199,0.073,1.794,0.122
	c0.593,0.049,1.135,0.114,1.622,0.195l-0.17,1.66c-0.765-0.033-1.526-0.061-2.283-0.086c-0.756-0.024-1.508-0.036-2.256-0.036
	c-0.717-0.017-1.278,0-1.684,0.048c-0.408,0.049-0.7,0.171-0.879,0.366c-0.179,0.196-0.268,0.529-0.268,1.001
	c0,0.57,0.142,0.944,0.426,1.123c0.285,0.179,0.712,0.333,1.282,0.463l3.392,0.781C219.256,23.03,219.964,23.388,220.419,23.86"/>
<path class="st1" d="M28.55,0.347c0.463-0.463,1.214-0.463,1.677,0l2.591,2.592c0.464,0.463,0.464,1.214,0,1.676l-6.859,6.861
	c-0.463,0.463-1.214,0.463-1.677,0l-6.86-6.861c-0.463-0.463-0.463-1.213,0-1.676l2.591-2.592c0.463-0.463,1.214-0.463,1.677,0
	l3.011,3.011c0.231,0.231,0.607,0.231,0.838,0L28.55,0.347 M21.69,41.355l3.011-3.011c0.231-0.231,0.607-0.231,0.838,0l3.011,3.011
	c0.463,0.463,1.214,0.463,1.677,0l2.591-2.592c0.463-0.463,0.463-1.213,0-1.677l-6.86-6.86c-0.463-0.463-1.213-0.463-1.677,0
	l-6.859,6.86c-0.464,0.463-0.464,1.214,0,1.677l2.591,2.592C20.476,41.818,21.227,41.818,21.69,41.355"/>
<path class="st2" d="M11.476,24.281c0.463,0.463,0.463,1.214,0,1.677L8.884,28.55c-0.463,0.463-1.213,0.463-1.676,0l-6.86-6.86
	c-0.464-0.464-0.464-1.214-0.001-1.677l6.861-6.86c0.462-0.463,1.213-0.463,1.676,0l2.592,2.592c0.463,0.462,0.463,1.213,0,1.676
	l-3.011,3.011c-0.231,0.231-0.231,0.607,0,0.838L11.476,24.281 M38.764,17.421l3.011,3.011c0.231,0.231,0.231,0.607,0,0.838
	l-3.011,3.011c-0.463,0.463-0.463,1.214,0,1.677l2.592,2.591c0.463,0.464,1.214,0.464,1.677,0.001l6.859-6.861
	c0.463-0.463,0.463-1.213,0-1.676l-6.86-6.86c-0.462-0.463-1.213-0.463-1.676,0l-2.592,2.591
	C38.301,16.207,38.301,16.958,38.764,17.421"/>
<path class="st0" d="M25.12,26.888c-3.334,0-6.037-2.703-6.037-6.037c0-3.333,2.703-6.036,6.037-6.036
	c3.334,0,6.037,2.703,6.037,6.037C31.157,24.185,28.454,26.888,25.12,26.888"/>
</svg>
